<?xml version="1.0" encoding="UTF-8" standalone="no"?>
<!DOCTYPE svg PUBLIC "-//W3C//DTD SVG 1.1//EN" "http://www.w3.org/Graphics/SVG/1.1/DTD/svg11.dtd">
<svg width="100%" height="100%" viewBox="0 0 1840 1840" version="1.1" xmlns="http://www.w3.org/2000/svg" xmlns:xlink="http://www.w3.org/1999/xlink" xml:space="preserve" xmlns:serif="http://www.serif.com/" style="fill-rule:evenodd;clip-rule:evenodd;stroke-linejoin:round;stroke-miterlimit:2;">
    <g id="Artboard1" transform="matrix(1,0,0,1,-5660.5,-849.508)">
        <rect x="5660.5" y="849.508" width="1839.71" height="1839.71" style="fill:none;"/>
        <clipPath id="_clip1">
            <rect x="5660.5" y="849.508" width="1839.71" height="1839.71"/>
        </clipPath>
        <g clip-path="url(#_clip1)">
            <g transform="matrix(4.16667,0,0,4.16667,0.500081,0.508158)">
                <g transform="matrix(0.267822,0,0,0.267822,-183.078,-165.755)">
                    <path d="M6580.35,1409.68C7019,1409.68 7375.12,1765.81 7375.12,2204.46C7375.12,2643.1 7019,2999.23 6580.35,2999.23C6141.71,2999.23 5785.58,2643.1 5785.58,2204.46C5785.58,1765.81 6141.71,1409.68 6580.35,1409.68ZM6580.35,1818.7C6793.26,1818.7 6966.11,1991.55 6966.11,2204.46C6966.11,2417.36 6793.26,2590.21 6580.35,2590.21C6367.45,2590.21 6194.6,2417.36 6194.6,2204.46C6194.6,1991.55 6367.45,1818.7 6580.35,1818.7Z" style="fill:url(#_Radial2);"/>
                </g>
                <g transform="matrix(1,0,0,1,0,0.000488281)">
                    <path d="M1489.93,475.419C1485.87,441.433 1486.11,406.89 1490.64,372.651C1518.04,352.143 1548.07,335.075 1579.99,321.88C1611.45,335.357 1641.25,352.83 1668.64,373.874C1672.69,407.86 1672.46,442.402 1667.93,476.641C1640.53,497.149 1610.5,514.218 1578.58,527.413C1547.12,513.935 1517.32,496.462 1489.93,475.419ZM1679.51,484.778C1714.51,458.006 1744.81,426.273 1770.03,390.059C1768.93,383.983 1767.55,378.007 1765.9,372.141C1742.86,407.363 1715.05,438.435 1682.84,464.938C1686.09,432.543 1685.64,399.975 1681.47,367.916C1675.79,324.224 1663.46,282.124 1644.71,242.179C1638.97,240.113 1633.1,238.306 1627.12,236.782C1646.1,274.345 1659.11,313.96 1665.96,355.107C1639.53,336.094 1611.1,320.202 1581.25,307.785C1540.61,290.879 1498.04,280.508 1454.12,276.76C1449.44,280.728 1444.95,284.911 1440.67,289.298C1482.63,291.65 1523.39,300.19 1562.4,314.815C1532.72,328.198 1504.74,344.874 1479.06,364.515C1444.06,391.287 1413.76,423.019 1388.54,459.234C1389.64,465.309 1391.02,471.286 1392.67,477.152C1415.71,441.93 1443.51,410.858 1475.72,384.355C1472.47,416.75 1472.93,449.318 1477.1,481.376C1482.78,525.069 1495.11,567.168 1513.86,607.113C1519.6,609.18 1525.47,610.987 1531.45,612.51C1512.47,574.948 1499.46,535.333 1492.61,494.186C1519.04,513.199 1547.47,529.09 1577.32,541.508C1617.96,558.413 1660.53,568.791 1704.44,572.539C1709.12,568.57 1713.62,564.384 1717.9,559.994C1675.94,557.642 1635.18,549.102 1596.17,534.477C1625.85,521.095 1653.83,504.418 1679.51,484.778Z" style="fill:rgb(35,31,32);fill-rule:nonzero;"/>
                </g>
                <path d="M1579.28,217.343C1464.98,217.343 1371.98,310.339 1371.98,424.646C1371.98,538.953 1464.98,631.949 1579.28,631.949C1693.59,631.949 1786.59,538.953 1786.59,424.646C1786.59,310.339 1693.59,217.343 1579.28,217.343ZM1579.28,645.411C1520.32,645.411 1464.88,622.447 1423.18,580.75C1381.48,539.053 1358.52,483.615 1358.52,424.646C1358.52,365.678 1381.48,310.239 1423.18,268.542C1464.88,226.845 1520.32,203.882 1579.28,203.882C1638.25,203.882 1693.69,226.845 1735.39,268.542C1777.09,310.239 1800.05,365.678 1800.05,424.646C1800.05,483.615 1777.09,539.053 1735.39,580.75C1693.69,622.447 1638.25,645.411 1579.28,645.411Z" style="fill:rgb(35,31,32);fill-rule:nonzero;"/>
            </g>
        </g>
    </g>
    <defs>
        <radialGradient id="_Radial2" cx="0" cy="0" r="1" gradientUnits="userSpaceOnUse" gradientTransform="matrix(1649.04,3.66161e-13,-3.66161e-13,1649.04,5755.61,2204.46)"><stop offset="0" style="stop-color:rgb(224,133,82);stop-opacity:1"/><stop offset="0.55" style="stop-color:rgb(224,152,82);stop-opacity:1"/><stop offset="1" style="stop-color:rgb(225,221,84);stop-opacity:1"/></radialGradient>
    </defs>
</svg>
