<?xml version="1.0" standalone="no"?>
<!DOCTYPE svg PUBLIC "-//W3C//DTD SVG 20010904//EN"
 "http://www.w3.org/TR/2001/REC-SVG-20010904/DTD/svg10.dtd">
<svg version="1.0" xmlns="http://www.w3.org/2000/svg"
 width="700.000000pt" height="700.000000pt" viewBox="0 0 700.000000 700.000000"
 preserveAspectRatio="xMidYMid meet">
<metadata>
Created by potrace 1.14, written by Peter Selinger 2001-2017
</metadata>
<g transform="translate(0.000000,700.000000) scale(0.100000,-0.100000)"
fill="#000000" stroke="none">
<path d="M3278 6990 c-624 -40 -1229 -247 -1743 -598 -341 -232 -665 -552
-901 -888 -554 -791 -755 -1782 -554 -2736 144 -681 483 -1291 991 -1783 565
-547 1255 -871 2064 -967 135 -16 592 -16 730 0 781 90 1451 395 2014 916 937
867 1324 2167 1016 3414 -197 797 -673 1497 -1355 1994 -640 465 -1454 699
-2262 648z m568 -225 c751 -79 1439 -408 1974 -944 544 -545 861 -1208 951
-1991 18 -158 16 -527 -5 -700 -87 -734 -398 -1390 -911 -1919 -543 -560
-1243 -898 -2035 -982 -163 -17 -515 -15 -685 5 -744 88 -1428 418 -1950 941
-521 521 -836 1160 -942 1906 -25 175 -25 663 0 834 91 625 318 1160 691 1630
101 127 392 418 516 517 477 378 1025 612 1620 692 158 21 176 22 418 24 133
1 267 -4 358 -13z"/>
<path d="M4260 6474 c0 -2 22 -48 49 -102 182 -364 351 -831 465 -1287 38
-152 98 -453 94 -466 -2 -5 -59 30 -128 77 -757 517 -1605 872 -2505 1048
-201 39 -493 82 -631 92 l-91 7 -102 -92 c-55 -51 -101 -96 -101 -100 0 -5 42
-11 93 -15 557 -41 1112 -153 1632 -328 83 -28 158 -55 169 -60 16 -8 -12 -25
-160 -97 -983 -480 -1838 -1195 -2479 -2076 -84 -115 -87 -121 -81 -162 7 -52
46 -213 55 -231 4 -8 34 27 81 95 257 372 510 673 831 988 153 150 399 370
404 363 1 -2 -2 -41 -6 -88 -43 -464 -28 -1022 42 -1519 84 -601 254 -1197
506 -1771 30 -69 61 -131 68 -139 12 -13 264 -95 271 -88 2 2 -34 85 -81 185
-221 475 -386 974 -483 1467 -47 235 -45 220 -23 204 465 -331 1004 -618 1528
-815 424 -159 844 -272 1283 -343 238 -39 511 -70 530 -60 27 14 200 181 195
188 -2 5 -57 11 -122 15 -367 22 -885 114 -1297 232 -141 40 -475 150 -485
160 -2 1 61 34 140 72 889 424 1702 1071 2327 1851 169 210 272 355 272 382 0
29 -50 241 -59 252 -4 4 -40 -40 -80 -99 -244 -353 -527 -690 -817 -974 -151
-147 -405 -372 -412 -365 -2 2 2 89 9 192 16 229 16 732 0 943 -58 744 -221
1433 -496 2095 -35 83 -78 181 -96 219 l-34 70 -69 23 c-96 32 -206 62 -206
57z m-658 -1385 c424 -187 930 -488 1315 -784 2 -1 10 -75 20 -166 26 -242 25
-962 -1 -1214 -26 -263 -21 -246 -91 -297 -354 -259 -852 -545 -1241 -712
l-111 -47 -59 24 c-381 161 -908 468 -1268 739 l-84 63 -11 120 c-43 453 -42
888 5 1343 l17 163 86 63 c332 243 754 486 1165 672 89 40 162 73 163 73 1 1
44 -17 95 -40z"/>
</g>
</svg>
